<svg width="51" height="50" viewBox="0 0 51 50" fill="none" xmlns="http://www.w3.org/2000/svg">
    <path
        d="M17.207 15.3743L16.077 21.9632C16.0175 22.2726 16.0468 22.5925 16.1615 22.8858C16.2761 23.179 16.4713 23.4335 16.7244 23.6196C16.9733 23.8068 17.2694 23.9204 17.5792 23.9475C17.889 23.9746 18.2001 23.9142 18.4775 23.773L24.5858 20.7055L30.3764 23.7362C30.6528 23.8859 30.9656 23.9545 31.279 23.934C31.5924 23.9136 31.8937 23.805 32.1486 23.6208C32.4035 23.4365 32.6016 23.1839 32.7202 22.8918C32.8389 22.5998 32.8734 22.2801 32.8197 21.9693L31.6897 15.4049L36.4419 10.7362C36.6653 10.5183 36.8235 10.2419 36.8985 9.93831C36.9736 9.63473 36.9624 9.31611 36.8664 9.01855C36.7704 8.72098 36.5934 8.45637 36.3553 8.25468C36.1173 8.05298 35.8278 7.92227 35.5196 7.87735L28.8921 6.90802L25.9357 0.920302C25.7956 0.641439 25.5806 0.407484 25.3151 0.244869C25.0496 0.0822528 24.7441 -0.00254379 24.4331 5.81273e-05C24.1231 -0.00139847 23.8189 0.0839385 23.5545 0.246491C23.2902 0.409043 23.0762 0.642377 22.9365 0.920302L19.974 6.90802L13.3466 7.86508C13.0353 7.90727 12.7423 8.03689 12.5012 8.239C12.2601 8.44111 12.0807 8.7075 11.9837 9.0075C11.8866 9.3075 11.8759 9.62892 11.9528 9.93476C12.0297 10.2406 12.191 10.5184 12.4181 10.7362L17.207 15.3743ZM20.707 8.66262C20.8508 8.63849 20.9867 8.58026 21.1036 8.49276C21.2205 8.40527 21.3149 8.29104 21.3789 8.15955L24.4331 2.02459L27.4872 8.15955C27.553 8.29333 27.6502 8.40902 27.7705 8.49666C27.8907 8.5843 28.0304 8.64126 28.1774 8.66262L34.9454 9.64421L30.0588 14.3927C29.9513 14.4964 29.8706 14.625 29.8237 14.7672C29.7769 14.9094 29.7653 15.0609 29.79 15.2086L30.9445 21.9264L25.0256 18.8282C24.8961 18.7615 24.7527 18.7267 24.6072 18.7267C24.4616 18.7267 24.3182 18.7615 24.1887 18.8282L17.9583 21.9693L19.1189 15.2209C19.1392 15.0736 19.1238 14.9236 19.0738 14.7836C19.0238 14.6436 18.9407 14.5179 18.8318 14.4172L13.9452 9.66875L20.707 8.66262Z"
        fill="black" />
    <path
        d="M50.0878 27.3007C49.781 26.9447 49.4072 26.6531 48.9879 26.4425C48.5687 26.232 48.1121 26.1066 47.6445 26.0737C47.177 26.0414 46.7077 26.1041 46.2649 26.258C45.822 26.4119 45.4145 26.6538 45.0668 26.9694L36.6068 34.6013C36.5848 34.4317 36.5522 34.2637 36.5091 34.0982C36.367 33.5666 36.1122 33.0722 35.7622 32.6486C35.4121 32.2251 34.9752 31.8825 34.4812 31.6442C32.9113 30.9817 30.7307 31.2884 28.6233 31.5951C27.3908 31.8375 26.1319 31.9159 24.879 31.8283C24.3214 31.6878 23.7822 31.4818 23.2725 31.2148C21.6721 30.497 19.4793 29.5154 15.3989 30.4172C13.2923 30.9637 11.3573 32.0357 9.77323 33.5338V31.2884C9.77323 31.0443 9.6767 30.8103 9.50487 30.6377C9.33304 30.4651 9.09999 30.3682 8.85699 30.3682H0.91624C0.673238 30.3682 0.440189 30.4651 0.26836 30.6377C0.0965321 30.8103 0 31.0443 0 31.2884V49.0798C0 49.3238 0.0965321 49.5579 0.26836 49.7305C0.440189 49.9031 0.673238 50 0.91624 50H8.85699C9.09999 50 9.33304 49.9031 9.50487 49.7305C9.6767 49.5579 9.77323 49.3238 9.77323 49.0798V47.8037C10.9949 48.092 16.5412 49.3865 20.6398 49.3865C24.9156 49.3865 30.1443 48.4049 33.3634 47C39.2945 44.4172 49.0616 33.27 49.8557 32.3681C50.5437 31.7201 50.9528 30.8281 50.9962 29.8817C51.0395 28.9354 50.7136 28.0094 50.0878 27.3007ZM7.94075 48.1595H1.83248V32.2086H7.94075V48.1595ZM48.5852 31.0369L48.4996 31.1228C48.3958 31.2393 38.305 42.8467 32.6182 45.319C29.6251 46.6258 24.6896 47.546 20.6398 47.546C16.364 47.546 10.0542 45.9755 9.99313 45.9632C9.9201 45.9543 9.84626 45.9543 9.77323 45.9632V36.1473C10.439 35.3804 12.7907 32.8896 15.796 32.227C19.2899 31.4602 21.0124 32.227 22.5151 32.908C23.1633 33.2287 23.8486 33.4678 24.5552 33.6197C25.9978 33.7563 27.4525 33.6819 28.8738 33.3988C30.6513 33.1534 32.667 32.8712 33.7604 33.3313C33.9955 33.4671 34.201 33.6489 34.3647 33.866C34.5284 34.0831 34.6469 34.3311 34.7133 34.5951C34.802 34.9573 34.8034 35.3355 34.7174 35.6982C34.6313 36.061 34.4603 36.398 34.2185 36.681C32.8258 38.5583 24.3537 41.3681 20.8781 41.0921C20.6351 41.0734 20.3946 41.1524 20.2096 41.3117C20.0246 41.4711 19.9102 41.6977 19.8916 41.9418C19.8729 42.1858 19.9516 42.4273 20.1103 42.6131C20.2689 42.7989 20.4946 42.9138 20.7376 42.9326C20.9269 42.9326 21.1346 42.9326 21.3484 42.9326C25.1416 42.9326 32.386 40.6872 35.037 38.4418L35.1042 38.4049L46.2457 28.3436C46.5805 28.0441 47.0197 27.8897 47.4674 27.9142C47.7016 27.9284 47.9306 27.9901 48.1406 28.0956C48.3505 28.201 48.5371 28.348 48.689 28.5277C49.0027 28.8761 49.1676 29.3343 49.1482 29.8036C49.1287 30.2729 48.9266 30.7158 48.5852 31.0369Z"
        fill="black" />
</svg>
