<svg width="46" height="50" viewBox="0 0 46 50" fill="none" xmlns="http://www.w3.org/2000/svg">
    <path
        d="M45.557 12.1712L23.4089 0.101156C23.2856 0.0347358 23.1481 0 23.0085 0C22.8689 0 22.7314 0.0347358 22.6081 0.101156L0.46 12.1712C0.322383 12.2434 0.206829 12.3522 0.125776 12.4858C0.0447135 12.6195 0.00122667 12.7731 0 12.9299V37.07C0.000408889 37.226 0.0426183 37.3789 0.122122 37.5126C0.201633 37.6461 0.315458 37.7554 0.451482 37.8287L22.5996 49.8988C22.7229 49.9653 22.8604 50 23 50C23.1396 50 23.2771 49.9653 23.4004 49.8988L45.5485 37.8287C45.6846 37.7554 45.7984 37.6461 45.8778 37.5126C45.9574 37.3789 45.9996 37.226 46 37.07V12.9299C46.0004 12.7748 45.9594 12.6225 45.8815 12.489C45.8036 12.3554 45.6915 12.2457 45.557 12.1712ZM23 1.84269L43.3593 12.9299L37.3963 16.1802L17.7441 4.70502L23 1.84269ZM2.64074 12.9299L9.05519 9.4813L28.6989 20.9134L23 24.0171L2.64074 12.9299ZM15.9807 5.66201L35.633 17.1372L30.4622 19.9564L10.8185 8.47259L15.9807 5.66201ZM31.5952 21.2927L36.2293 18.7753V25.2069L34.4404 23.4136C34.341 23.3137 34.2188 23.2401 34.0845 23.1994C33.9504 23.1587 33.8083 23.1521 33.671 23.1802C33.5337 23.2084 33.4053 23.2704 33.2974 23.3607C33.1893 23.451 33.105 23.5669 33.0518 23.6981L31.5952 27.2502V21.2927ZM1.7037 14.3697L22.1481 25.5173V47.7003L1.7037 36.5527V14.3697ZM23.8519 47.7003V25.5173L29.8915 22.2238V31.5868C29.9014 31.7798 29.975 31.964 30.1007 32.1095C30.2263 32.2551 30.3967 32.3536 30.5844 32.3895C30.7721 32.4253 30.9663 32.3962 31.1356 32.3069C31.305 32.2176 31.4399 32.0734 31.5185 31.8971L34.1252 25.5259L36.4593 27.8709C36.5784 27.9926 36.7307 28.0754 36.8965 28.1091C37.0625 28.1428 37.2344 28.1258 37.3908 28.0601C37.547 27.9944 37.6804 27.8832 37.7739 27.7404C37.8675 27.5977 37.9169 27.43 37.9159 27.2588V17.8441L44.2878 14.3955V36.5527L23.8519 47.7003Z"
        fill="black" />
</svg>
