<svg width="38" height="50" viewBox="0 0 38 50" fill="none" xmlns="http://www.w3.org/2000/svg">
    <path
        d="M37.7767 18.2508L34.5201 14.6943L35.5391 10.0042C35.6336 9.58818 35.3815 9.1722 34.9718 9.03701L30.36 7.56032L28.8788 2.99501C28.7422 2.58943 28.322 2.35025 27.9018 2.43344L23.164 3.44218L19.5712 0.218386C19.256 -0.0727954 18.7623 -0.0727954 18.4471 0.218386L14.8543 3.44218L10.1165 2.43344C9.69629 2.33985 9.27608 2.58943 9.13951 2.99501L7.64777 7.56032L3.02549 9.03701C2.61578 9.1722 2.37418 9.58818 2.45822 10.0042L3.47721 14.6943L0.220609 18.2508C-0.0735364 18.5628 -0.0735364 19.0516 0.220609 19.3636L3.47721 22.9201L2.45822 27.6102C2.36367 28.0262 2.61578 28.4422 3.02549 28.5774L7.63727 30.0541L7.82636 30.6468L2.34266 45.6947C2.2166 46.0275 2.32165 46.4018 2.60529 46.6202C2.87841 46.8386 3.26711 46.8698 3.57176 46.6826L9.17103 43.2924L11.2826 49.4384C11.3981 49.7712 11.7133 50 12.0705 50H12.081C12.4381 50 12.7533 49.7816 12.8689 49.4488L17.5647 36.5953L18.4471 37.3856C18.6047 37.5312 18.8043 37.604 19.0144 37.604C19.2245 37.604 19.4136 37.5312 19.5817 37.3856L20.4641 36.5953L25.1599 49.4488C25.2755 49.7816 25.6012 50 25.9478 50H25.9583C26.3155 50 26.6307 49.7712 26.7462 49.4384L28.8578 43.2924L34.4571 46.6826C34.7617 46.8698 35.1504 46.8386 35.4235 46.6202C35.6967 46.4018 35.8017 46.0275 35.6862 45.6947L30.1919 30.6572L30.381 30.0645L34.9928 28.5878C35.4025 28.4526 35.6441 28.0366 35.5601 27.6206L34.5411 22.9305L37.7977 19.374C38.0708 19.0516 38.0708 18.5732 37.7767 18.2508ZM12.0915 46.6618L10.4106 41.7741C10.3266 41.5349 10.1375 41.3478 9.89589 41.2542C9.65427 41.1606 9.39164 41.1918 9.17103 41.327L4.71682 44.0204L8.65627 33.2363L9.108 34.6194C9.24457 35.025 9.66477 35.2641 10.085 35.1809L14.8228 34.1722L16.1885 35.3993L12.0915 46.6618ZM33.27 44.0308L28.8158 41.3374C28.5951 41.2022 28.3325 41.1814 28.0909 41.2646C27.8493 41.3478 27.6602 41.5349 27.5761 41.7845L25.8953 46.6722L21.7773 35.4097L23.1429 34.1826L27.8808 35.1913C28.301 35.2849 28.7212 35.0354 28.8578 34.6298L29.3095 33.2467L33.27 44.0308ZM32.9968 22.1298C32.8182 22.3274 32.7447 22.5977 32.7972 22.8577L33.7427 27.2359L29.4461 28.6086C29.1939 28.6918 28.9838 28.8893 28.8998 29.1493L28.4901 30.3972L27.5131 33.4027L23.0904 32.4667C22.8278 32.4147 22.5547 32.4875 22.3551 32.6643L19.0039 35.6593L15.6527 32.6539C15.4952 32.5187 15.2956 32.4355 15.0855 32.4355C15.0224 32.4355 14.9699 32.4459 14.9069 32.4563L10.4842 33.3923L9.5072 30.3869L9.09749 29.1389C9.01345 28.8893 8.81385 28.6814 8.55122 28.5982L4.2651 27.2359L5.21057 22.8577C5.26309 22.5977 5.18956 22.3274 5.01097 22.1298L1.98548 18.8124L5.02148 15.495C5.20006 15.2974 5.2736 15.027 5.22107 14.767L4.27561 10.3889L8.57223 9.01621C8.82436 8.93302 9.03446 8.73544 9.1185 8.47546L10.4947 4.22213L14.9174 5.15807C15.18 5.21007 15.4531 5.13727 15.6527 4.96048L19.0039 1.96547L22.3551 4.97088C22.5547 5.14767 22.8278 5.22047 23.0904 5.16847L27.5131 4.23253L28.8998 8.48586C28.9838 8.73544 29.1834 8.94342 29.4461 9.02661L33.7427 10.3993L32.7972 14.7774C32.7447 15.0374 32.8182 15.3078 32.9968 15.5054L36.0223 18.8124L32.9968 22.1298Z"
        fill="black" />
    <path
        d="M19.004 6.74915C12.0495 6.74915 6.39772 12.344 6.39772 19.2283C6.39772 26.1127 12.0495 31.7076 19.004 31.7076C25.9584 31.7076 31.6102 26.1127 31.6102 19.2283C31.6102 12.344 25.9584 6.74915 19.004 6.74915ZM19.004 30.0437C12.9845 30.0437 8.07855 25.1872 8.07855 19.2283C8.07855 13.2695 12.9845 8.41304 19.004 8.41304C25.0234 8.41304 29.9294 13.2695 29.9294 19.2283C29.9294 25.1872 25.0234 30.0437 19.004 30.0437Z"
        fill="black" />
    <path
        d="M23.6998 13.0511L16.4828 20.1227L14.3082 17.9908C13.6569 17.3565 12.5958 17.3565 11.934 17.9908L10.5999 19.2907C10.2847 19.6027 10.1061 20.0187 10.1061 20.4659C10.1061 20.913 10.2847 21.329 10.5999 21.641L15.2957 26.2375C15.6213 26.5599 16.0521 26.7159 16.4828 26.7159C16.9135 26.7159 17.3442 26.5599 17.6699 26.2375L27.4082 16.7117C27.7233 16.3997 27.9019 15.9838 27.9019 15.5366C27.9019 15.0894 27.7233 14.6734 27.4082 14.3615L26.074 13.0615C25.4227 12.4168 24.3512 12.4168 23.6998 13.0511ZM18.4157 23.1697L16.4828 25.052L11.7974 20.4659L13.1316 19.1763L15.8945 21.8802C16.2201 22.2026 16.7454 22.2026 17.0711 21.8802L24.8869 14.2367L24.2986 13.6439L26.2211 15.5262L18.4157 23.1697Z"
        fill="black" />
</svg>
